<svg width="567" height="567" viewBox="0 0 567 567" fill="none" xmlns="http://www.w3.org/2000/svg">
<path d="M79.585 308.873C79.1945 302.177 78.9334 295.457 79.1753 288.752C79.187 285.39 79.4267 282.044 79.6125 278.695C79.6833 277.018 79.8744 275.351 80.0306 273.676L80.4928 268.663C82.0054 255.317 84.5823 242.076 88.1524 229.071C95.3595 203.1 106.757 178.028 122.664 155.733C130.692 144.666 139.752 134.244 149.938 124.955C151.218 123.798 152.434 122.578 153.781 121.493L157.763 118.185C160.374 115.927 163.195 113.935 165.935 111.834C166.636 111.324 167.309 110.792 168.026 110.298L170.178 108.847L174.485 105.955C175.894 104.954 177.416 104.126 178.886 103.21L183.335 100.543C195.333 93.6499 208.145 88.1777 221.343 84.0851L226.326 82.6409C227.154 82.4044 227.986 82.1458 228.82 81.9282L231.335 81.3038L236.375 80.0832C238.058 79.7175 239.758 79.3989 241.452 79.0615C244.832 78.3361 248.253 77.8503 251.661 77.3269C253.362 77.0399 255.08 76.8951 256.801 76.6964C258.519 76.5199 260.223 76.3056 261.948 76.148L267.11 75.7954L269.692 75.6349L272.275 75.5693L277.438 75.4602C279.158 75.4417 280.876 75.5088 282.6 75.5314C289.477 75.6286 296.344 76.1528 303.153 76.9625C316.758 78.7339 330.181 81.6496 343.137 85.9573C356.065 90.2749 368.655 95.5682 380.531 102.149C386.519 105.343 392.267 108.938 397.949 112.62C403.554 116.414 409.079 120.341 414.33 124.608C417.01 126.669 419.544 128.919 422.118 131.102C423.417 132.184 424.617 133.375 425.88 134.502C427.12 135.657 428.41 136.743 429.595 137.949C432.001 140.318 434.447 142.652 436.729 145.149C437.872 146.392 439.072 147.582 440.191 148.844L443.551 152.638C444.688 153.893 445.741 155.21 446.813 156.519L450.02 160.452C452.127 163.148 454.093 165.893 456.002 168.69C459.792 174.293 463.366 180.035 466.693 185.917C470.019 191.8 473.082 197.837 475.9 203.992C478.743 210.128 481.382 216.377 483.665 222.761C485.967 229.139 488.059 235.611 489.786 242.19C490.719 245.465 491.424 248.788 492.203 252.108C492.571 253.769 492.861 255.447 493.201 257.119C493.523 258.796 493.872 260.464 494.102 262.153C498.61 289.062 497.456 317.229 489.993 343.83C486.326 357.134 481.091 370.043 474.517 382.244C467.947 394.454 459.92 405.892 450.827 416.368C441.749 426.859 431.467 436.267 420.516 444.701C415.065 448.957 409.323 452.806 403.533 456.577C397.658 460.198 391.738 463.749 385.604 466.899C373.41 473.352 360.675 478.681 347.614 483.106C341.077 485.316 334.437 487.202 327.629 488.818C325.915 489.216 324.215 489.597 322.345 489.944C320.518 490.264 318.802 490.536 317.063 490.772C313.6 491.262 310.162 491.637 306.716 491.93C299.826 492.526 292.943 492.834 286.065 492.885C282.628 492.931 279.183 492.864 275.744 492.784C272.31 492.628 268.864 492.497 265.432 492.224C251.699 491.302 238.028 489.161 224.61 485.926C217.928 484.204 211.288 482.297 204.78 479.952L199.913 478.179L195.118 476.22C191.897 474.973 188.782 473.456 185.649 472.008C173.157 466.087 161.415 458.644 150.677 450.044C129.202 432.781 112.122 410.699 100.314 386.394C94.4027 374.233 89.7511 361.526 86.2626 348.54C82.8717 335.531 80.5618 322.249 79.6322 308.856L79.585 308.873ZM81.0824 308.763C81.6017 315.403 82.4589 322.01 83.6569 328.562C84.8737 335.107 86.4786 341.579 88.3383 347.963C92.2027 360.691 97.3548 373.011 103.858 384.531C104.257 385.249 104.641 385.984 105.05 386.699L106.348 388.809L108.955 393.025C109.791 394.449 110.756 395.785 111.706 397.138L114.541 401.189C115.452 402.555 116.511 403.827 117.526 405.125L120.583 408.993C121.101 409.628 121.579 410.298 122.132 410.909L123.771 412.752L127.047 416.427C135.905 426.107 145.864 434.692 156.581 442.049C157.885 443.024 159.264 443.877 160.636 444.743L164.747 447.353C165.421 447.795 166.119 448.218 166.836 448.603L168.96 449.8L173.194 452.187C176.09 453.654 178.983 455.111 181.881 456.524L186.315 458.513C187.786 459.175 189.254 459.859 190.773 460.419C193.794 461.578 196.757 462.873 199.83 463.875L204.404 465.476L209.042 466.896C215.202 468.854 221.508 470.347 227.819 471.765C253.143 477.09 279.427 478.404 305.195 475.968C308.41 475.65 311.618 475.281 314.768 474.837C316.343 474.616 317.93 474.368 319.394 474.101C320.807 473.84 322.38 473.491 323.915 473.125C330.118 471.656 336.338 469.812 342.492 467.81C348.639 465.789 354.72 463.516 360.702 461.023C363.705 459.794 366.662 458.465 369.625 457.154C371.096 456.481 372.553 455.771 374.02 455.088L376.219 454.045L378.385 452.938C384.208 450.078 389.813 446.838 395.372 443.529C400.845 440.091 406.281 436.582 411.434 432.684C421.801 425.005 431.565 416.477 440.185 406.919C474.914 368.917 492.123 315.364 485.924 263.273C485.777 261.64 485.529 260.021 485.291 258.399C485.043 256.78 484.846 255.155 484.567 253.536C483.97 250.313 483.449 247.063 482.7 243.86C482.041 240.637 481.223 237.449 480.405 234.26C479.997 232.665 479.5 231.091 479.044 229.513C478.597 227.932 478.119 226.351 477.594 224.787C475.609 218.5 473.296 212.306 470.736 206.22C468.137 200.147 465.287 194.173 462.176 188.332C459.075 182.488 455.717 176.787 452.054 171.276C450.219 168.539 448.336 165.818 446.347 163.218L443.233 159.37C442.19 158.082 441.166 156.787 440.06 155.563C431.424 145.551 421.808 136.37 411.288 128.361C406.096 124.265 400.56 120.638 395.006 117.08L390.744 114.555L388.61 113.298L386.44 112.118L382.098 109.758C380.629 109.011 379.139 108.292 377.667 107.567C365.822 101.77 353.422 97.2042 340.746 93.8476C339.177 93.3895 337.571 93.0395 335.975 92.6545C334.376 92.2916 332.792 91.8811 331.19 91.5404L326.369 90.5977L323.959 90.1264L321.537 89.7438L316.694 88.9786L311.827 88.3907C308.598 87.9406 305.332 87.7788 302.086 87.4935C289.088 86.6115 276.051 87.0142 263.186 88.5433C237.488 91.7594 212.418 99.6186 189.804 112.085C167.2 124.548 146.939 141.383 130.223 161.513C121.864 171.574 114.433 182.475 107.983 193.965C101.548 205.472 95.9912 217.551 91.7668 230.139C87.4914 242.702 84.3796 255.685 82.4914 268.865C81.6313 275.468 80.9835 282.103 80.7662 288.757C80.4539 295.413 80.7174 302.079 81.0692 308.725L81.0824 308.763Z" fill="#FFDA57"/>
<mask id="mask0_153_12" style="mask-type:luminance" maskUnits="userSpaceOnUse" x="6" y="5" width="557" height="558">
<path d="M562.276 5.66211H6.53516V562.017H562.276V5.66211Z" fill="white"/>
<path d="M79.585 308.873C79.1945 302.177 78.9334 295.457 79.1753 288.752C79.187 285.39 79.4267 282.044 79.6125 278.695C79.6833 277.018 79.8744 275.351 80.0306 273.676L80.4928 268.663C82.0054 255.317 84.5823 242.076 88.1524 229.071C95.3595 203.1 106.757 178.028 122.664 155.733C130.692 144.666 139.752 134.244 149.938 124.955C151.218 123.798 152.434 122.578 153.781 121.493L157.763 118.185C160.374 115.927 163.195 113.935 165.935 111.834C166.636 111.324 167.309 110.792 168.026 110.298L170.178 108.847L174.485 105.955C175.894 104.954 177.416 104.126 178.886 103.21L183.335 100.543C195.333 93.6499 208.145 88.1777 221.343 84.0851L226.326 82.6409C227.154 82.4044 227.986 82.1458 228.82 81.9282L231.335 81.3038L236.375 80.0832C238.058 79.7175 239.758 79.3989 241.452 79.0615C244.832 78.3361 248.253 77.8503 251.661 77.3269C253.362 77.0399 255.08 76.8951 256.801 76.6964C258.519 76.5199 260.223 76.3056 261.948 76.148L267.11 75.7954L269.692 75.6349L272.275 75.5693L277.438 75.4602C279.158 75.4417 280.876 75.5088 282.6 75.5314C289.477 75.6286 296.344 76.1528 303.153 76.9625C316.758 78.7339 330.181 81.6496 343.137 85.9573C356.065 90.2749 368.655 95.5682 380.531 102.149C386.519 105.343 392.267 108.938 397.949 112.62C403.554 116.414 409.079 120.341 414.33 124.608C417.01 126.669 419.544 128.919 422.118 131.102C423.417 132.184 424.617 133.375 425.88 134.502C427.12 135.657 428.41 136.743 429.595 137.949C432.001 140.318 434.447 142.652 436.729 145.149C437.872 146.392 439.072 147.582 440.191 148.844L443.551 152.638C444.688 153.893 445.741 155.21 446.813 156.519L450.02 160.452C452.127 163.148 454.093 165.893 456.002 168.69C459.792 174.293 463.366 180.035 466.693 185.917C470.019 191.8 473.082 197.837 475.9 203.992C478.743 210.128 481.382 216.377 483.665 222.761C485.967 229.139 488.059 235.611 489.786 242.19C490.719 245.465 491.424 248.788 492.203 252.108C492.571 253.769 492.861 255.447 493.201 257.119C493.523 258.796 493.872 260.464 494.102 262.153C498.61 289.062 497.456 317.229 489.993 343.83C486.326 357.134 481.091 370.043 474.517 382.244C467.947 394.454 459.92 405.892 450.827 416.368C441.749 426.859 431.467 436.267 420.516 444.701C415.065 448.957 409.323 452.806 403.533 456.577C397.658 460.198 391.738 463.749 385.604 466.899C373.41 473.352 360.675 478.681 347.614 483.106C341.077 485.316 334.437 487.202 327.629 488.818C325.915 489.216 324.215 489.597 322.345 489.944C320.518 490.264 318.802 490.536 317.063 490.772C313.6 491.262 310.162 491.637 306.716 491.93C299.826 492.526 292.943 492.834 286.065 492.885C282.628 492.931 279.183 492.864 275.744 492.784C272.31 492.628 268.864 492.497 265.432 492.224C251.699 491.302 238.028 489.161 224.61 485.926C217.928 484.204 211.288 482.297 204.78 479.952L199.913 478.179L195.118 476.22C191.897 474.973 188.782 473.456 185.649 472.008C173.157 466.087 161.415 458.644 150.677 450.044C129.202 432.781 112.122 410.699 100.314 386.394C94.4027 374.233 89.7511 361.526 86.2626 348.54C82.8717 335.531 80.5618 322.249 79.6322 308.856L79.585 308.873ZM81.0824 308.763C81.6017 315.403 82.4589 322.01 83.6569 328.562C84.8737 335.107 86.4786 341.579 88.3383 347.963C92.2027 360.691 97.3548 373.011 103.858 384.531C104.257 385.249 104.641 385.984 105.05 386.699L106.348 388.809L108.955 393.025C109.791 394.449 110.756 395.785 111.706 397.138L114.541 401.189C115.452 402.555 116.511 403.827 117.526 405.125L120.583 408.993C121.101 409.628 121.579 410.298 122.132 410.909L123.771 412.752L127.047 416.427C135.905 426.107 145.864 434.692 156.581 442.049C157.885 443.024 159.264 443.877 160.636 444.743L164.747 447.353C165.421 447.795 166.119 448.218 166.836 448.603L168.96 449.8L173.194 452.187C176.09 453.654 178.983 455.111 181.881 456.524L186.315 458.513C187.786 459.175 189.254 459.859 190.773 460.419C193.794 461.578 196.757 462.873 199.83 463.875L204.404 465.476L209.042 466.896C215.202 468.854 221.508 470.347 227.819 471.765C253.143 477.09 279.427 478.404 305.195 475.968C308.41 475.65 311.618 475.281 314.768 474.837C316.343 474.616 317.93 474.368 319.394 474.101C320.807 473.84 322.38 473.491 323.915 473.125C330.118 471.656 336.338 469.812 342.492 467.81C348.639 465.789 354.72 463.516 360.702 461.023C363.705 459.794 366.662 458.465 369.625 457.154C371.096 456.481 372.553 455.771 374.02 455.088L376.219 454.045L378.385 452.938C384.208 450.078 389.813 446.838 395.372 443.529C400.845 440.091 406.281 436.582 411.434 432.684C421.801 425.005 431.565 416.477 440.185 406.919C474.914 368.917 492.123 315.364 485.924 263.273C485.777 261.64 485.529 260.021 485.291 258.399C485.043 256.78 484.846 255.155 484.567 253.536C483.97 250.313 483.449 247.063 482.7 243.86C482.041 240.637 481.223 237.449 480.405 234.26C479.997 232.665 479.5 231.091 479.044 229.513C478.597 227.932 478.119 226.351 477.594 224.787C475.609 218.5 473.296 212.306 470.736 206.22C468.137 200.147 465.287 194.173 462.176 188.332C459.075 182.488 455.717 176.787 452.054 171.276C450.219 168.539 448.336 165.818 446.347 163.218L443.233 159.37C442.19 158.082 441.166 156.787 440.06 155.563C431.424 145.551 421.808 136.37 411.288 128.361C406.096 124.265 400.56 120.638 395.006 117.08L390.744 114.555L388.61 113.298L386.44 112.118L382.098 109.758C380.629 109.011 379.139 108.292 377.667 107.567C365.822 101.77 353.422 97.2042 340.746 93.8476C339.177 93.3895 337.571 93.0395 335.975 92.6545C334.376 92.2916 332.792 91.8811 331.19 91.5404L326.369 90.5977L323.959 90.1264L321.537 89.7438L316.694 88.9786L311.827 88.3907C308.598 87.9406 305.332 87.7788 302.086 87.4935C289.088 86.6115 276.051 87.0142 263.186 88.5433C237.488 91.7594 212.418 99.6186 189.804 112.085C167.2 124.548 146.939 141.383 130.223 161.513C121.864 171.574 114.433 182.475 107.983 193.965C101.548 205.472 95.9912 217.551 91.7668 230.139C87.4914 242.702 84.3796 255.685 82.4914 268.865C81.6313 275.468 80.9835 282.103 80.7662 288.757C80.4539 295.413 80.7174 302.079 81.0692 308.725L81.0824 308.763Z" fill="black"/>
</mask>
<g mask="url(#mask0_153_12)">
<path d="M79.585 308.873C79.1945 302.177 78.9334 295.457 79.1753 288.752C79.187 285.39 79.4267 282.044 79.6125 278.695C79.6833 277.018 79.8744 275.351 80.0306 273.676L80.4928 268.663C82.0054 255.317 84.5823 242.076 88.1524 229.071C95.3595 203.1 106.757 178.028 122.664 155.733C130.692 144.666 139.752 134.244 149.938 124.955C151.218 123.798 152.434 122.578 153.781 121.493L157.763 118.185C160.374 115.927 163.195 113.935 165.935 111.834C166.636 111.324 167.309 110.792 168.026 110.298L170.178 108.847L174.485 105.955C175.894 104.954 177.416 104.126 178.886 103.21L183.335 100.543C195.333 93.6499 208.145 88.1777 221.343 84.0851L226.326 82.6409C227.154 82.4044 227.986 82.1458 228.82 81.9282L231.335 81.3038L236.375 80.0832C238.058 79.7175 239.758 79.3989 241.452 79.0615C244.832 78.3361 248.253 77.8503 251.661 77.3269C253.362 77.0399 255.08 76.8951 256.801 76.6964C258.519 76.5199 260.223 76.3056 261.948 76.148L267.11 75.7954L269.692 75.6349L272.275 75.5693L277.438 75.4602C279.158 75.4417 280.876 75.5088 282.6 75.5314C289.477 75.6286 296.344 76.1528 303.153 76.9625C316.758 78.7339 330.181 81.6496 343.137 85.9573C356.065 90.2749 368.655 95.5682 380.531 102.149C386.519 105.343 392.267 108.938 397.949 112.62C403.554 116.414 409.079 120.341 414.33 124.608C417.01 126.669 419.544 128.919 422.118 131.102C423.417 132.184 424.617 133.375 425.88 134.502C427.12 135.657 428.41 136.743 429.595 137.949C432.001 140.318 434.447 142.652 436.729 145.149C437.872 146.392 439.072 147.582 440.191 148.844L443.551 152.638C444.688 153.893 445.741 155.21 446.813 156.519L450.02 160.452C452.127 163.148 454.093 165.893 456.002 168.69C459.792 174.293 463.366 180.035 466.693 185.917C470.019 191.8 473.082 197.837 475.9 203.992C478.743 210.128 481.382 216.377 483.665 222.761C485.967 229.139 488.059 235.611 489.786 242.19C490.719 245.465 491.424 248.788 492.203 252.108C492.571 253.769 492.861 255.447 493.201 257.119C493.523 258.796 493.872 260.464 494.102 262.153C498.61 289.062 497.456 317.229 489.993 343.83C486.326 357.134 481.091 370.043 474.517 382.244C467.947 394.454 459.92 405.892 450.827 416.368C441.749 426.859 431.467 436.267 420.516 444.701C415.065 448.957 409.323 452.806 403.533 456.577C397.658 460.198 391.738 463.749 385.604 466.899C373.41 473.352 360.675 478.681 347.614 483.106C341.077 485.316 334.437 487.202 327.629 488.818C325.915 489.216 324.215 489.597 322.345 489.944C320.518 490.264 318.802 490.536 317.063 490.772C313.6 491.262 310.162 491.637 306.716 491.93C299.826 492.526 292.943 492.834 286.065 492.885C282.628 492.931 279.183 492.864 275.744 492.784C272.31 492.628 268.864 492.497 265.432 492.224C251.699 491.302 238.028 489.161 224.61 485.926C217.928 484.204 211.288 482.297 204.78 479.952L199.913 478.179L195.118 476.22C191.897 474.973 188.782 473.456 185.649 472.008C173.157 466.087 161.415 458.644 150.677 450.044C129.202 432.781 112.122 410.699 100.314 386.394C94.4027 374.233 89.7511 361.526 86.2626 348.54C82.8717 335.531 80.5618 322.249 79.6322 308.856L79.585 308.873ZM81.0824 308.763C81.6017 315.403 82.4589 322.01 83.6569 328.562C84.8737 335.107 86.4786 341.579 88.3383 347.963C92.2027 360.691 97.3548 373.011 103.858 384.531C104.257 385.249 104.641 385.984 105.05 386.699L106.348 388.809L108.955 393.025C109.791 394.449 110.756 395.785 111.706 397.138L114.541 401.189C115.452 402.555 116.511 403.827 117.526 405.125L120.583 408.993C121.101 409.628 121.579 410.298 122.132 410.909L123.771 412.752L127.047 416.427C135.905 426.107 145.864 434.692 156.581 442.049C157.885 443.024 159.264 443.877 160.636 444.743L164.747 447.353C165.421 447.795 166.119 448.218 166.836 448.603L168.96 449.8L173.194 452.187C176.09 453.654 178.983 455.111 181.881 456.524L186.315 458.513C187.786 459.175 189.254 459.859 190.773 460.419C193.794 461.578 196.757 462.873 199.83 463.875L204.404 465.476L209.042 466.896C215.202 468.854 221.508 470.347 227.819 471.765C253.143 477.09 279.427 478.404 305.195 475.968C308.41 475.65 311.618 475.281 314.768 474.837C316.343 474.616 317.93 474.368 319.394 474.101C320.807 473.84 322.38 473.491 323.915 473.125C330.118 471.656 336.338 469.812 342.492 467.81C348.639 465.789 354.72 463.516 360.702 461.023C363.705 459.794 366.662 458.465 369.625 457.154C371.096 456.481 372.553 455.771 374.02 455.088L376.219 454.045L378.385 452.938C384.208 450.078 389.813 446.838 395.372 443.529C400.845 440.091 406.281 436.582 411.434 432.684C421.801 425.005 431.565 416.477 440.185 406.919C474.914 368.917 492.123 315.364 485.924 263.273C485.777 261.64 485.529 260.021 485.291 258.399C485.043 256.78 484.846 255.155 484.567 253.536C483.97 250.313 483.449 247.063 482.7 243.86C482.041 240.637 481.223 237.449 480.405 234.26C479.997 232.665 479.5 231.091 479.044 229.513C478.597 227.932 478.119 226.351 477.594 224.787C475.609 218.5 473.296 212.306 470.736 206.22C468.137 200.147 465.287 194.173 462.176 188.332C459.075 182.488 455.717 176.787 452.054 171.276C450.219 168.539 448.336 165.818 446.347 163.218L443.233 159.37C442.19 158.082 441.166 156.787 440.06 155.563C431.424 145.551 421.808 136.37 411.288 128.361C406.096 124.265 400.56 120.638 395.006 117.08L390.744 114.555L388.61 113.298L386.44 112.118L382.098 109.758C380.629 109.011 379.139 108.292 377.667 107.567C365.822 101.77 353.422 97.2042 340.746 93.8476C339.177 93.3895 337.571 93.0395 335.975 92.6545C334.376 92.2916 332.792 91.8811 331.19 91.5404L326.369 90.5977L323.959 90.1264L321.537 89.7438L316.694 88.9786L311.827 88.3907C308.598 87.9406 305.332 87.7788 302.086 87.4935C289.088 86.6115 276.051 87.0142 263.186 88.5433C237.488 91.7594 212.418 99.6186 189.804 112.085C167.2 124.548 146.939 141.383 130.223 161.513C121.864 171.574 114.433 182.475 107.983 193.965C101.548 205.472 95.9912 217.551 91.7668 230.139C87.4914 242.702 84.3796 255.685 82.4914 268.865C81.6313 275.468 80.9835 282.103 80.7662 288.757C80.4539 295.413 80.7174 302.079 81.0692 308.725L81.0824 308.763Z" stroke="#FFDA57" stroke-width="18"/>
</g>
<path d="M183.144 230.416L183.841 230.196L183.928 230.17L184.016 230.146C185.413 229.781 187.038 229.338 188.714 228.996L189.435 228.856L189.515 228.841L189.595 228.83C190.849 228.646 192.199 228.439 193.572 228.261L194.949 228.093L194.972 228.091L194.995 228.088C202.156 227.359 209.685 227.609 216.962 229.525L217.665 229.716L217.671 229.717C225.025 231.78 231.965 235.233 237.966 239.809L237.97 239.813C243.93 244.368 249.148 250.094 252.625 256.897L252.623 256.898C253.925 259.433 252.879 262.486 250.42 263.752L250.421 263.755C250.405 263.763 250.387 263.77 250.37 263.779C250.358 263.784 250.347 263.791 250.336 263.797L250.334 263.795C248.668 264.62 246.919 264.385 245.673 263.726L245.629 263.704L245.586 263.679C239.775 260.443 234.4 257.684 228.96 255.511L228.952 255.507C223.52 253.324 218.039 251.68 212.494 250.489L212.486 250.488C206.794 249.255 201.283 248.248 195.698 248.037C195.044 248.021 194.375 248.025 193.628 248.03C192.946 248.035 192.193 248.039 191.423 248.026C190.086 248.088 188.542 248.177 186.989 248.189C185.645 248.274 184.058 248.397 182.526 248.465C181.096 248.603 179.771 248.784 178.13 248.973C172.61 249.761 167.287 251.865 163.024 255.225L163.007 255.238L162.99 255.251C162.033 255.99 161.161 256.872 159.998 258.03C159.137 258.953 158.369 259.978 157.376 261.261C156.504 262.473 155.89 263.471 154.903 264.913C154.201 266.052 153.357 267.486 152.476 268.788C151.735 270.016 150.907 271.37 149.97 272.683C149.195 273.922 148.376 275.166 147.497 276.395C146.736 277.66 145.941 278.9 145.184 280.078C144.508 281.26 143.764 282.581 142.952 283.889C142.262 285.242 141.509 286.581 140.819 287.818C140.145 289.209 139.431 290.583 138.728 291.918C138.084 293.314 137.396 294.737 136.649 296.179C135.993 297.662 135.266 299.189 134.406 300.763L134.393 300.791L134.35 300.874C132.994 303.409 129.891 304.266 127.453 302.975C126.009 302.212 125.057 300.828 124.808 299.299H124.81C124.471 297.456 124.253 295.625 124.108 293.815L124.098 293.696L124.095 293.579C124.044 291.69 124.118 289.824 124.191 288.106L124.197 287.955L124.214 287.805C124.413 285.991 124.677 284.197 124.967 282.438L124.991 282.293L125.025 282.149C125.432 280.406 125.887 278.647 126.383 276.908L126.414 276.801L126.449 276.695C127.046 274.934 127.741 273.192 128.342 271.633L128.414 271.445L128.504 271.265C129.228 269.793 130.043 268.07 130.948 266.421L130.993 266.34L131.04 266.261C131.949 264.755 132.948 263.135 134.082 261.562L134.153 261.464L134.23 261.369C135.341 259.991 136.583 258.492 137.99 257.08L138.055 257.015L138.123 256.953C139.434 255.74 140.859 254.458 142.413 253.271L142.494 253.21L142.576 253.152C143.873 252.251 145.455 251.09 147.001 250.1L147.083 250.047L147.166 249.999C148.786 249.057 149.695 248.43 151.505 247.35L151.554 247.32L151.604 247.293C152.296 246.903 152.9 246.539 153.673 246.089C154.115 245.815 155.042 245.202 155.868 244.746C161.503 241.331 167.249 237.791 173.468 234.515L173.553 234.47L173.641 234.429C174.932 233.819 176.802 232.848 178.521 232.133L178.582 232.108L178.642 232.085C179.943 231.588 181.523 230.949 183.144 230.416ZM133.691 297.852C133.686 297.821 133.678 297.791 133.673 297.76L132.763 298.002L133.691 297.852Z" fill="#FFDA57" stroke="#FFDA57" stroke-width="9"/>
<path d="M328.531 179.289L328.532 179.287C329.912 178.831 331.524 178.28 333.209 177.849L333.936 177.671L333.986 177.66C335.591 177.309 337.445 176.873 339.299 176.573L339.309 176.572C344.539 175.738 349.647 175.197 354.647 174.709L359.613 174.23L359.691 174.223L359.77 174.218C360.522 174.171 361.275 174.1 362.06 174.014L364.541 173.728L364.653 173.714L364.767 173.707C366.028 173.625 367.078 173.503 368.381 173.373L369.786 173.242L369.887 173.234L369.989 173.229C371.596 173.164 373.493 173.057 375.329 173.04L375.432 173.039L375.536 173.043C377.033 173.099 378.725 173.164 380.449 173.357L381.189 173.448L381.269 173.458L381.349 173.471C382.217 173.619 383.139 173.786 384.081 173.99L384.74 174.127C385.438 174.276 386.246 174.462 387.056 174.715L387.09 174.726L387.124 174.738C388.615 175.23 390.187 175.779 391.747 176.43L392.414 176.715L392.465 176.738L392.515 176.761C394.15 177.525 395.798 178.335 397.433 179.223L397.561 179.294L397.684 179.371C398.963 180.177 400.745 181.217 402.309 182.344L402.356 182.378L402.401 182.412C403.633 183.349 404.906 184.336 406.154 185.391L406.686 185.848L406.778 185.927L406.867 186.012C407.935 187.045 409.108 188.172 410.236 189.375L410.716 189.896L410.798 189.986L410.874 190.079C411.811 191.229 412.849 192.497 413.823 193.84L414.235 194.42L414.295 194.506L414.351 194.595C415.335 196.154 416.281 197.786 417.123 199.517L417.231 199.753C418.287 202.209 417.269 205.14 414.793 206.357L414.761 206.373L414.729 206.387C413.469 206.982 411.848 207.11 410.338 206.382L410.337 206.381L410.304 206.366V206.365C408.661 205.611 407.142 204.815 405.713 204.009C404.284 203.311 402.867 202.589 401.485 201.831C400.175 201.2 398.742 200.521 397.368 199.808C396.271 199.3 394.634 198.597 393.29 197.935C391.949 197.378 390.589 196.813 389.239 196.232C388.622 195.979 387.992 195.746 387.26 195.474C386.604 195.23 385.872 194.955 385.132 194.645C383.948 194.234 382.363 193.725 380.905 193.136C379.65 192.693 378.096 192.169 376.579 191.514C375.29 191.036 373.784 190.495 372.289 189.854C370.938 189.351 369.735 188.971 368.143 188.415C366.86 188.034 365.505 187.715 364.053 187.401C362.783 187.192 361.441 187.071 359.974 186.974C354.568 186.844 349.066 188.349 344.188 191.029L344.151 191.049L344.114 191.068C343.545 191.366 342.966 191.708 342.305 192.106C341.678 192.484 340.933 192.94 340.19 193.358L340.151 193.381L340.111 193.403C339.999 193.463 339.842 193.56 339.556 193.758C339.335 193.911 338.883 194.233 338.478 194.494C338.056 194.765 337.16 195.362 336.564 195.739L336.566 195.741C336.029 196.088 335.499 196.467 334.86 196.923C334.284 197.335 333.614 197.811 332.904 198.267C331.749 199.069 330.97 199.73 329.574 200.767C325.234 204.278 321.421 208.381 317.586 212.766L317.584 212.765C313.853 217.036 310.442 221.624 307.403 226.62L307.395 226.633C304.34 231.62 301.688 237.057 298.97 243.131L298.968 243.13C297.799 245.756 294.78 246.817 292.277 245.736L292.262 245.73L292.247 245.723C290.557 244.978 289.559 243.467 289.285 241.958L289.109 240.988L289.132 240.9C288.061 233.679 288.838 226.324 290.796 219.414L290.797 219.408C292.866 212.136 296.367 205.217 301.027 199.173L301.031 199.167C305.787 193.019 311.861 188.128 318.223 184.312L318.297 184.268L318.371 184.227C319.576 183.565 321.489 182.398 323.178 181.581L323.224 181.559C324.004 181.192 324.865 180.787 325.75 180.408C326.284 180.179 327.419 179.643 328.531 179.289Z" fill="#FFDA57" stroke="#FFDA57" stroke-width="9"/>
<path d="M384.571 254.905C385.89 252.276 389.056 251.239 391.659 252.503L391.66 252.501C391.665 252.504 391.67 252.508 391.675 252.51C391.691 252.518 391.707 252.524 391.722 252.531L391.721 252.534C393.611 253.475 394.559 255.309 394.657 257.003L394.66 257.046L394.661 257.091C394.886 262.974 394.508 268.782 393.811 274.472V274.48C393.1 280.211 391.992 285.896 390.522 291.504L390.521 291.503C387.593 302.709 383.194 313.723 377.085 323.971L377.08 323.977L377.076 323.985C370.869 334.311 362.629 343.446 353.256 351.03H353.254C348.603 354.801 343.572 358.335 338.076 361.162C332.597 364.003 326.843 366.084 321.156 367.675L321.12 367.685L321.083 367.694L316.969 368.771L316.867 368.799L316.763 368.821C315.408 369.108 314.074 369.408 312.725 369.723L312.66 369.738C311.292 370.036 309.493 370.326 308.439 370.531C306.85 370.863 305.828 371.027 304.509 371.333L304.327 371.375L304.14 371.402C301.428 371.796 298.74 372.225 296.067 372.69L295.91 372.716L295.752 372.732C294.429 372.867 293.103 373.024 291.773 373.202L291.718 373.21L291.664 373.215C291.133 373.273 290.607 373.365 289.852 373.488C289.174 373.599 288.327 373.731 287.425 373.794V373.796C286.093 373.904 285.069 374.058 283.474 374.225C282.355 374.368 280.681 374.635 279.109 374.726C277.727 374.841 276.389 374.954 275.054 375.099L275.044 375.101L275.033 375.102L272.917 375.321L272.795 375.334L272.671 375.34L270.556 375.444L270.525 375.446L270.492 375.447C267.973 375.534 264.706 375.784 261.599 375.61C260.121 375.576 258.519 375.467 257.254 375.408C256.306 375.363 255.42 375.246 254.673 375.136C253.923 375.039 253.182 374.925 252.485 374.813C251.044 374.587 249.552 374.339 248.04 374.03L247.997 374.022L247.956 374.013C246.379 373.658 244.777 373.156 243.544 372.8L243.533 372.796L243.52 372.793C242.146 372.388 240.635 371.938 239.119 371.375L239.057 371.352L238.995 371.327C237.652 370.782 236.127 370.099 234.977 369.613L234.956 369.605L234.935 369.595L232.962 368.738V368.737C232.217 368.428 231.452 368.07 230.686 367.639L226.903 365.603L226.893 365.598L226.883 365.593C225.63 364.91 224.215 364.126 222.838 363.19C221.634 362.412 220.431 361.61 219.241 360.772L217.484 359.564L217.38 359.493L217.281 359.416C216.67 358.943 216.04 358.425 215.536 358.02L215.515 358.003L215.495 357.987C214.482 357.151 213.269 356.181 212.174 355.256C209.774 353.252 207.577 350.869 205.763 349.038L205.744 349.018C205.156 348.417 204.592 347.786 204.05 347.117L204.051 347.116C203.596 346.572 203.15 346.023 202.717 345.475L202.024 344.612C201.337 343.748 200.669 342.882 200.021 342.028L199.966 341.956L199.914 341.882C198.176 339.387 196.641 336.787 195.252 334.251L195.24 334.23L195.229 334.209C193.859 331.644 194.794 328.467 197.32 327.046H197.319C198.968 326.118 200.826 326.211 202.258 326.906L202.26 326.905L202.323 326.935L202.322 326.937C202.338 326.945 202.355 326.952 202.371 326.96L202.112 327.461L202.497 327.009C205.078 328.409 207.469 329.911 209.672 331.27C210.917 331.944 212.102 332.646 213.2 333.301C214.353 333.989 215.402 334.619 216.465 335.204L219.917 337.081L219.929 337.087L219.939 337.093C221.166 337.769 221.877 338.212 222.686 338.605L223.041 338.772L223.108 338.801L223.173 338.833C223.754 339.117 224.379 339.435 224.983 339.744L226.669 340.606L226.681 340.611L226.692 340.617C227.188 340.87 227.763 341.165 228.332 341.475L229.921 342.199C231.187 342.744 232.441 343.36 233.5 343.864C234.346 344.266 235.117 344.62 235.865 344.923L236.607 345.209L236.72 345.252L236.832 345.298L240.329 346.788L240.367 346.804L240.406 346.822C241.473 347.301 242.079 347.439 243.69 348.063H243.691C244.735 348.455 245.998 348.91 247.189 349.384C247.906 349.638 249.602 350.172 250.734 350.603L251.666 350.941C252.549 351.266 253.421 351.602 254.27 351.931C255.489 352.316 256.683 352.734 257.825 353.142C258.58 353.388 259.315 353.688 259.816 353.887C260.261 354.064 260.592 354.189 260.876 354.281L261.146 354.361L261.269 354.395L261.39 354.434C262.201 354.704 263.187 355.016 264.172 355.351L265.151 355.693L265.198 355.709L265.244 355.727C267.435 356.572 269.474 357.002 272.349 357.826L274.012 358.279L275.758 358.601C276.998 358.83 278.249 359.038 279.518 359.236H279.517C281.729 359.576 283.923 359.575 286.69 359.65C288.982 359.61 291.293 359.326 293.89 359.008C295.004 358.815 296.129 358.554 297.403 358.257L297.42 358.253L297.437 358.249C298.634 357.979 299.787 357.7 300.92 357.392C303.335 356.548 305.601 355.74 307.769 354.803C308.878 354.276 309.956 353.753 311.005 353.215L314.275 351.371C318.465 348.835 322.397 345.912 326.224 342.823C330.104 339.667 333.757 336.546 337.081 333.155C343.802 326.3 349.43 318.414 355.008 310.051L355.015 310.041C360.537 301.807 365.567 293.013 370.352 283.798C372.742 279.194 375.062 274.479 377.392 269.663L377.398 269.653C379.698 264.93 382.052 259.888 384.572 254.905H384.571ZM198.421 335.043C198.433 335.048 198.445 335.053 198.457 335.059C198.446 335.052 198.435 335.046 198.424 335.039L198.421 335.043Z" fill="#FFDA57" stroke="#FFDA57" stroke-width="9"/>
</svg>
